<svg xmlns="http://www.w3.org/2000/svg" xmlns:v="https://svgstorm.com"
viewBox = "0 0 118 116"
width="118"
height="116">
<g fill="None" fill-opacity="0.0" stroke="#000000" stroke-opacity="0.00" stroke-width="0.3"><path d="
M 0.00 116.00 
L 118.00 116.00
L 118.00 0.00
L 0.00 0.00
L 0.00 116.00
M 108.00 44.00 
C 109.84 47.85 113.24 48.51 116.00 51.00
C 113.29 52.69 110.92 54.72 108.00 56.00
C 95.84 62.71 83.64 70.30 71.00 76.00
C 69.96 76.47 69.01 76.60 68.00 77.00
C 57.88 82.61 48.13 91.22 37.00 95.00
C 38.67 89.17 40.70 82.39 45.00 78.00
C 45.42 77.82 46.00 78.00 46.00 78.00
C 48.95 75.64 53.08 74.34 56.00 72.00
C 56.74 69.64 58.14 67.30 59.00 65.00
C 56.73 63.97 56.08 61.96 55.00 60.00
C 53.77 57.77 52.45 55.50 52.00 53.00
C 44.48 62.48 40.18 77.56 33.00 88.00
C 32.89 88.47 33.00 89.00 33.00 89.00
C 30.03 101.65 19.12 107.11 8.00 112.00
C 18.30 81.82 35.49 53.68 48.00 24.00
C 50.98 18.17 57.81 18.90 63.25 16.25 C 68.68 13.59 73.81 10.84 80.00 10.00
C 79.68 14.00 77.23 17.98 75.00 21.00
C 73.81 24.31 72.40 27.76 71.00 31.00
C 69.26 35.04 67.31 38.63 65.00 42.00
C 64.54 43.08 64.60 43.10 64.00 44.00
C 64.05 44.50 64.00 45.00 64.00 45.00
C 64.43 46.15 65.46 48.48 67.00 49.00
C 67.27 47.17 68.02 44.70 70.00 44.00
C 73.26 37.63 75.21 25.44 81.00 21.00
C 81.09 20.52 81.00 20.00 81.00 20.00
C 80.95 18.32 81.72 17.77 83.00 17.00
C 83.16 16.56 83.00 16.00 83.00 16.00
C 83.57 13.59 85.07 11.96 86.00 10.00
C 86.01 8.82 86.49 8.03 87.00 7.00
C 87.67 5.65 88.03 3.67 90.00 4.00
C 94.62 17.80 102.79 30.56 108.00 44.00 Z"/>
</g>
<g fill="None" fill-opacity="0.0" stroke="#BBBBBB" stroke-opacity="0.15" stroke-width="0.3"><path d="
M 87.00 7.00 
C 89.26 4.73 89.99 7.36 91.00 9.00
C 94.39 14.51 96.81 21.90 99.00 28.00
C 100.41 30.85 102.45 33.98 104.00 37.00
C 105.21 39.37 106.12 41.56 107.00 44.00
C 107.06 44.16 108.00 44.00 108.00 44.00
C 102.79 30.56 94.62 17.80 90.00 4.00
C 88.03 3.67 87.67 5.65 87.00 7.00 Z"/>
</g>
<g fill="None" fill-opacity="0.0" stroke="#888888" stroke-opacity="0.53" stroke-width="0.3"><path d="
M 87.00 7.00 
C 86.49 8.03 86.01 8.82 86.00 10.00
C 86.00 10.50 86.00 11.00 86.00 11.00
C 86.68 9.90 88.37 8.75 88.00 7.00
C 89.25 7.30 89.71 8.83 91.00 9.00
C 89.99 7.36 89.26 4.73 87.00 7.00 Z"/>
</g>
<g fill="None" fill-opacity="0.0" stroke="#6E6E71" stroke-opacity="0.95" stroke-width="0.3"><path d="
M 86.00 11.00 
C 85.25 12.90 84.15 14.56 83.00 16.00
C 83.00 16.00 83.16 16.56 83.00 17.00
C 82.62 18.02 82.36 18.99 82.00 20.00
C 81.43 21.59 80.75 21.80 80.00 23.00
C 77.07 30.08 73.14 37.28 70.00 44.00
C 67.08 50.25 64.72 59.95 60.00 65.00
C 59.19 66.80 58.88 69.21 58.00 71.00
C 62.03 68.10 69.00 69.13 73.00 66.00
C 73.97 65.24 73.65 65.21 74.00 64.00
C 75.19 59.93 77.39 55.93 79.00 52.00
C 79.67 50.35 79.94 50.28 81.00 49.00
C 82.45 47.20 83.57 44.78 85.00 43.00
C 85.11 42.53 85.00 42.00 85.00 42.00
C 85.66 39.18 87.48 36.88 88.00 34.00
C 92.78 39.99 95.24 48.21 99.00 55.00
C 99.50 55.00 100.00 55.00 100.00 55.00
C 103.60 52.12 105.71 51.86 110.00 51.00
C 110.00 50.50 110.00 50.00 110.00 50.00
C 108.49 48.12 107.84 46.32 107.00 44.00
C 106.12 41.56 105.21 39.37 104.00 37.00
C 102.07 33.98 100.30 31.60 99.00 28.00
C 96.81 21.90 94.39 14.51 91.00 9.00
C 89.71 8.83 89.25 7.30 88.00 7.00
C 88.37 8.75 86.68 9.90 86.00 11.00 Z"/>
</g>
<g fill="None" fill-opacity="0.0" stroke="#EDE6E6" stroke-opacity="0.17" stroke-width="0.3"><path d="
M 48.00 24.00 
C 48.41 23.46 49.53 23.37 50.00 23.00
C 51.69 21.67 50.51 21.92 52.00 22.00
C 53.52 22.08 53.31 22.97 55.00 22.00
C 56.38 19.54 57.28 18.09 61.00 19.00
C 60.13 21.99 58.82 26.71 55.00 27.00
C 55.53 27.92 56.61 30.15 57.00 31.00
C 57.35 26.07 64.42 15.35 70.00 15.00
C 67.67 21.88 64.32 28.44 61.00 35.00
C 60.11 34.48 62.05 37.82 62.00 37.00
C 67.11 28.50 68.74 14.27 79.00 11.00
C 78.57 14.63 75.42 17.35 75.00 21.00
C 77.23 17.98 79.68 14.00 80.00 10.00
C 73.81 10.84 68.68 13.59 63.25 16.25 C 57.81 18.90 50.98 18.17 48.00 24.00 Z"/>
</g>
<g fill="None" fill-opacity="0.0" stroke="#C7C7C7" stroke-opacity="0.18" stroke-width="0.3"><path d="
M 83.00 16.00 
C 84.15 14.56 85.25 12.90 86.00 11.00
C 86.00 11.00 86.00 10.50 86.00 10.00
C 85.07 11.96 83.57 13.59 83.00 16.00 Z"/>
</g>
<g fill="None" fill-opacity="0.0" stroke="#C2BEBF" stroke-opacity="0.75" stroke-width="0.3"><path d="
M 62.00 37.00 
C 61.75 37.42 60.02 38.92 60.00 39.00
C 60.52 40.38 61.32 41.70 62.00 43.00
C 62.63 43.46 63.87 42.58 64.00 44.00
C 64.60 43.10 64.54 43.08 65.00 42.00
C 66.72 37.99 69.08 34.51 71.00 31.00
C 72.40 27.76 73.81 24.31 75.00 21.00
C 75.42 17.35 78.57 14.63 79.00 11.00
C 68.74 14.27 67.11 28.50 62.00 37.00 Z"/>
</g>
<g fill="None" fill-opacity="0.0" stroke="#C4BEBD" stroke-opacity="0.82" stroke-width="0.3"><path d="
M 57.00 31.00 
C 57.57 32.26 58.49 33.94 59.00 35.00
C 59.48 35.09 60.63 34.78 61.00 35.00
C 64.32 28.44 67.67 21.88 70.00 15.00
C 64.42 15.35 57.35 26.07 57.00 31.00 Z"/>
</g>
<g fill="None" fill-opacity="0.0" stroke="#CBCDCF" stroke-opacity="0.14" stroke-width="0.3"><path d="
M 81.00 20.00 
C 81.25 19.75 82.00 20.00 82.00 20.00
C 82.36 18.99 82.62 18.02 83.00 17.00
C 81.72 17.77 80.95 18.32 81.00 20.00 Z"/>
</g>
<g fill="None" fill-opacity="0.0" stroke="#C8BCBD" stroke-opacity="0.73" stroke-width="0.3"><path d="
M 55.00 22.00 
C 54.05 23.70 55.14 23.29 53.00 24.00
C 53.09 24.48 53.00 25.00 53.00 25.00
C 53.32 25.61 54.67 26.43 55.00 27.00
C 58.82 26.71 60.13 21.99 61.00 19.00
C 57.28 18.09 56.38 19.54 55.00 22.00 Z"/>
</g>
<g fill="None" fill-opacity="0.0" stroke="#808185" stroke-opacity="0.50" stroke-width="0.3"><path d="
M 81.00 21.00 
C 80.89 21.61 80.24 22.42 80.00 23.00
C 80.75 21.80 81.43 21.59 82.00 20.00
C 82.00 20.00 81.25 19.75 81.00 20.00
C 81.00 20.00 81.09 20.52 81.00 21.00 Z"/>
</g>
<g fill="None" fill-opacity="0.0" stroke="#A4494E" stroke-opacity="0.81" stroke-width="0.3"><path d="
M 50.00 23.00 
C 49.36 24.04 49.47 25.01 49.00 26.00
C 50.18 24.54 51.47 24.17 53.00 25.00
C 53.00 25.00 53.09 24.48 53.00 24.00
C 52.95 23.74 52.14 22.15 52.00 22.00
C 50.51 21.92 51.69 21.67 50.00 23.00 Z"/>
</g>
<g fill="None" fill-opacity="0.0" stroke="#C8C9CB" stroke-opacity="0.14" stroke-width="0.3"><path d="
M 70.00 44.00 
C 73.14 37.28 77.07 30.08 80.00 23.00
C 80.24 22.42 80.89 21.61 81.00 21.00
C 75.21 25.44 73.26 37.63 70.00 44.00 Z"/>
</g>
<g fill="None" fill-opacity="0.0" stroke="#E3B9B7" stroke-opacity="0.53" stroke-width="0.3"><path d="
M 53.00 24.00 
C 55.14 23.29 54.05 23.70 55.00 22.00
C 53.31 22.97 53.52 22.08 52.00 22.00
C 52.14 22.15 52.95 23.74 53.00 24.00 Z"/>
</g>
<g fill="None" fill-opacity="0.0" stroke="#F2B8B8" stroke-opacity="0.13" stroke-width="0.3"><path d="
M 48.00 24.00 
C 35.49 53.68 18.30 81.82 8.00 112.00
C 19.12 107.11 30.03 101.65 33.00 89.00
C 26.32 97.33 21.51 108.20 9.00 110.00
C 8.94 108.11 10.42 106.71 11.00 105.00
C 11.65 103.63 12.31 102.34 13.00 101.00
C 16.40 94.37 19.81 87.45 23.00 81.00
C 27.39 67.84 34.45 52.47 42.00 41.00
C 44.37 36.21 46.78 30.69 49.00 26.00
C 49.47 25.01 49.36 24.04 50.00 23.00
C 49.53 23.37 48.41 23.46 48.00 24.00 Z"/>
</g>
<g fill="None" fill-opacity="0.0" stroke="#DF272D" stroke-opacity="0.97" stroke-width="0.3"><path d="
M 49.00 26.00 
C 46.12 29.56 44.68 36.94 42.00 41.00
C 34.45 52.47 27.39 67.84 23.00 81.00
C 20.57 88.29 17.06 94.73 13.00 101.00
C 12.31 102.34 11.65 103.63 11.00 105.00
C 11.64 109.08 22.60 102.61 25.25 99.25 C 27.90 95.88 31.26 88.43 33.77 83.77 C 36.28 79.11 38.01 72.06 41.31 67.31 C 44.60 62.55 45.22 55.87 49.31 51.31 C 53.39 46.74 55.88 62.06 60.00 60.00
C 62.48 55.92 66.26 51.08 64.00 46.00
C 63.09 45.87 62.39 43.75 62.00 43.00
C 61.32 41.70 60.52 40.38 60.00 39.00
C 59.56 37.83 59.55 36.14 59.00 35.00
C 58.49 33.94 57.57 32.26 57.00 31.00
C 56.61 30.15 55.53 27.92 55.00 27.00
C 54.67 26.43 53.32 25.61 53.00 25.00
C 51.47 24.17 50.18 24.54 49.00 26.00 Z"/>
</g>
<g fill="None" fill-opacity="0.0" stroke="#B03E45" stroke-opacity="0.65" stroke-width="0.3"><path d="
M 42.00 41.00 
C 44.68 36.94 46.12 29.56 49.00 26.00
C 46.78 30.69 44.37 36.21 42.00 41.00 Z"/>
</g>
<g fill="None" fill-opacity="0.0" stroke="#67686A" stroke-opacity="0.65" stroke-width="0.3"><path d="
M 104.00 37.00 
C 102.45 33.98 100.41 30.85 99.00 28.00
C 100.30 31.60 102.07 33.98 104.00 37.00 Z"/>
</g>
<g fill="None" fill-opacity="0.0" stroke="#E3E7E4" stroke-opacity="0.12" stroke-width="0.3"><path d="
M 65.00 42.00 
C 67.31 38.63 69.26 35.04 71.00 31.00
C 69.08 34.51 66.72 37.99 65.00 42.00 Z"/>
</g>
<g fill="None" fill-opacity="0.0" stroke="#CFD0D0" stroke-opacity="0.14" stroke-width="0.3"><path d="
M 85.00 42.00 
C 86.15 40.57 87.28 38.86 88.00 37.00
C 93.00 41.62 94.23 49.24 98.00 55.00
C 98.36 54.77 99.00 55.00 99.00 55.00
C 95.24 48.21 92.78 39.99 88.00 34.00
C 87.48 36.88 85.66 39.18 85.00 42.00 Z"/>
</g>
<g fill="None" fill-opacity="0.0" stroke="#F0C5BC" stroke-opacity="0.28" stroke-width="0.3"><path d="
M 60.00 39.00 
C 60.02 38.92 61.75 37.42 62.00 37.00
C 62.05 37.82 60.11 34.48 61.00 35.00
C 60.63 34.78 59.48 35.09 59.00 35.00
C 59.55 36.14 59.56 37.83 60.00 39.00 Z"/>
</g>
<g fill="None" fill-opacity="0.0" stroke="#000000" stroke-opacity="0.00" stroke-width="0.3"><path d="
M 85.00 42.00 
C 85.00 42.00 85.11 42.53 85.00 43.00
C 84.49 45.16 83.41 49.14 81.00 50.00
C 78.83 54.38 77.57 59.52 75.00 64.00
C 76.10 65.06 77.40 64.57 79.00 64.00
C 79.44 63.84 80.00 64.00 80.00 64.00
C 85.23 59.80 92.34 58.56 98.00 55.00
C 94.23 49.24 93.00 41.62 88.00 37.00
C 87.28 38.86 86.15 40.57 85.00 42.00 Z"/>
</g>
<g fill="None" fill-opacity="0.0" stroke="#F4A1A0" stroke-opacity="0.45" stroke-width="0.3"><path d="
M 64.00 46.00 
C 63.81 45.58 64.00 45.00 64.00 45.00
C 64.00 45.00 64.05 44.50 64.00 44.00
C 63.87 42.58 62.63 43.46 62.00 43.00
C 62.39 43.75 63.09 45.87 64.00 46.00 Z"/>
</g>
<g fill="None" fill-opacity="0.0" stroke="#D4D8D9" stroke-opacity="0.07" stroke-width="0.3"><path d="
M 81.00 49.00 
C 80.76 49.30 81.00 50.00 81.00 50.00
C 83.41 49.14 84.49 45.16 85.00 43.00
C 83.57 44.78 82.45 47.20 81.00 49.00 Z"/>
</g>
<g fill="None" fill-opacity="0.0" stroke="#EFCACE" stroke-opacity="0.13" stroke-width="0.3"><path d="
M 64.00 45.00 
C 64.00 45.00 63.81 45.58 64.00 46.00
C 66.26 51.08 62.48 55.92 60.00 60.00
C 59.42 60.96 59.33 62.87 59.00 64.00
C 57.18 63.40 56.85 61.44 56.00 60.00
C 55.93 59.83 55.00 60.00 55.00 60.00
C 56.08 61.96 56.73 63.97 59.00 65.00
C 59.41 65.19 60.00 65.00 60.00 65.00
C 64.72 59.95 67.08 50.25 70.00 44.00
C 68.02 44.70 67.27 47.17 67.00 49.00
C 65.46 48.48 64.43 46.15 64.00 45.00 Z"/>
</g>
<g fill="None" fill-opacity="0.0" stroke="#747373" stroke-opacity="0.69" stroke-width="0.3"><path d="
M 110.00 50.00 
C 110.00 49.50 110.00 49.00 110.00 49.00
C 109.12 47.25 108.56 45.83 108.00 44.00
C 108.00 44.00 107.06 44.16 107.00 44.00
C 107.84 46.32 108.49 48.12 110.00 50.00 Z"/>
</g>
<g fill="None" fill-opacity="0.0" stroke="#E8E5E6" stroke-opacity="0.09" stroke-width="0.3"><path d="
M 110.00 49.00 
C 111.23 49.36 111.73 50.78 113.00 51.00
C 112.33 52.20 111.36 53.58 110.00 54.00
C 109.56 54.16 109.00 54.00 109.00 54.00
C 108.49 54.25 108.34 55.69 108.00 56.00
C 110.92 54.72 113.29 52.69 116.00 51.00
C 113.24 48.51 109.84 47.85 108.00 44.00
C 108.56 45.83 109.12 47.25 110.00 49.00 Z"/>
</g>
<g fill="None" fill-opacity="0.0" stroke="#6E6A6D" stroke-opacity="0.66" stroke-width="0.3"><path d="
M 79.00 52.00 
C 79.33 51.43 80.71 50.55 81.00 50.00
C 81.00 50.00 80.76 49.30 81.00 49.00
C 79.94 50.28 79.67 50.35 79.00 52.00 Z"/>
</g>
<g fill="None" fill-opacity="0.0" stroke="#BFB0B1" stroke-opacity="0.48" stroke-width="0.3"><path d="
M 110.00 50.00 
C 110.00 50.00 110.00 50.50 110.00 51.00
C 110.00 51.39 110.26 53.76 110.00 54.00
C 111.36 53.58 112.33 52.20 113.00 51.00
C 111.73 50.78 111.23 49.36 110.00 49.00
C 110.00 49.00 110.00 49.50 110.00 50.00 Z"/>
</g>
<g fill="None" fill-opacity="0.0" stroke="#B5434A" stroke-opacity="0.64" stroke-width="0.3"><path d="
M 11.00 105.00 
C 10.42 106.71 8.94 108.11 9.00 110.00
C 21.51 108.20 26.32 97.33 33.00 89.00
C 33.00 89.00 32.89 88.47 33.00 88.00
C 36.06 74.94 46.96 64.07 50.00 51.00
C 53.65 51.74 54.61 56.90 56.00 60.00
C 56.85 61.44 57.18 63.40 59.00 64.00
C 59.33 62.87 59.42 60.96 60.00 60.00
C 55.88 62.06 53.39 46.74 49.31 51.31 C 45.22 55.87 44.60 62.55 41.31 67.31 C 38.01 72.06 36.28 79.11 33.77 83.77 C 31.26 88.43 27.90 95.88 25.25 99.25 C 22.60 102.61 11.64 109.08 11.00 105.00 Z"/>
</g>
<g fill="None" fill-opacity="0.0" stroke="#A4A6A7" stroke-opacity="0.17" stroke-width="0.3"><path d="
M 79.00 52.00 
C 77.39 55.93 75.19 59.93 74.00 64.00
C 74.20 63.76 75.00 64.00 75.00 64.00
C 77.57 59.52 78.83 54.38 81.00 50.00
C 80.71 50.55 79.33 51.43 79.00 52.00 Z"/>
</g>
<g fill="None" fill-opacity="0.0" stroke="#F3AEB0" stroke-opacity="0.12" stroke-width="0.3"><path d="
M 33.00 88.00 
C 40.18 77.56 44.48 62.48 52.00 53.00
C 52.45 55.50 53.77 57.77 55.00 60.00
C 55.00 60.00 55.93 59.83 56.00 60.00
C 54.61 56.90 53.65 51.74 50.00 51.00
C 46.96 64.07 36.06 74.94 33.00 88.00 Z"/>
</g>
<g fill="None" fill-opacity="0.0" stroke="#CFACB2" stroke-opacity="0.81" stroke-width="0.3"><path d="
M 100.00 55.00 
C 100.25 55.25 100.00 56.00 100.00 56.00
C 102.51 55.01 106.99 52.55 109.00 54.00
C 109.00 54.00 109.56 54.16 110.00 54.00
C 110.26 53.76 110.00 51.39 110.00 51.00
C 105.71 51.86 103.60 52.12 100.00 55.00 Z"/>
</g>
<g fill="None" fill-opacity="0.0" stroke="#B54049" stroke-opacity="0.71" stroke-width="0.3"><path d="
M 100.00 56.00 
C 93.39 58.59 86.90 62.38 80.00 64.00
C 80.00 64.00 79.44 63.84 79.00 64.00
C 78.42 64.31 77.54 65.72 77.00 66.00
C 79.83 65.45 83.81 63.38 86.00 65.00
C 74.23 72.69 60.66 78.04 50.00 87.00
C 56.43 84.47 61.65 79.54 68.00 77.00
C 69.01 76.60 69.96 76.47 71.00 76.00
C 76.39 72.49 83.77 67.32 89.70 64.70 C 95.62 62.07 95.86 60.51 99.23 59.23 C 102.60 57.95 107.55 52.72 109.00 54.00
C 106.99 52.55 102.51 55.01 100.00 56.00 Z"/>
</g>
<g fill="None" fill-opacity="0.0" stroke="#EFB3B2" stroke-opacity="0.13" stroke-width="0.3"><path d="
M 71.00 76.00 
C 83.64 70.30 95.84 62.71 108.00 56.00
C 108.34 55.69 108.49 54.25 109.00 54.00
C 107.55 52.72 102.60 57.95 99.23 59.23 C 95.86 60.51 95.62 62.07 89.70 64.70 C 83.77 67.32 76.39 72.49 71.00 76.00 Z"/>
</g>
<g fill="None" fill-opacity="0.0" stroke="#F9C9CC" stroke-opacity="0.17" stroke-width="0.3"><path d="
M 80.00 64.00 
C 86.90 62.38 93.39 58.59 100.00 56.00
C 100.00 56.00 100.25 55.25 100.00 55.00
C 100.00 55.00 99.50 55.00 99.00 55.00
C 99.00 55.00 98.36 54.77 98.00 55.00
C 92.34 58.56 85.23 59.80 80.00 64.00 Z"/>
</g>
<g fill="None" fill-opacity="0.0" stroke="#F3BAB7" stroke-opacity="0.19" stroke-width="0.3"><path d="
M 73.00 66.00 
C 73.49 65.92 75.60 66.27 77.00 66.00
C 77.54 65.72 78.42 64.31 79.00 64.00
C 77.40 64.57 76.10 65.06 75.00 64.00
C 75.00 64.00 74.20 63.76 74.00 64.00
C 73.65 65.21 73.97 65.24 73.00 66.00 Z"/>
</g>
<g fill="None" fill-opacity="0.0" stroke="#D43034" stroke-opacity="0.98" stroke-width="0.3"><path d="
M 77.00 66.00 
C 75.60 66.27 73.49 65.92 73.00 66.00
C 69.00 69.13 62.03 68.10 58.00 71.00
C 58.26 73.58 55.05 75.60 53.00 76.00
C 52.52 76.09 52.00 76.00 52.00 76.00
C 49.51 78.00 45.04 79.24 43.00 82.00
C 42.23 83.68 41.71 85.29 41.00 87.00
C 41.03 87.38 42.88 88.96 42.00 90.00
C 44.37 89.03 46.39 87.25 49.00 87.00
C 49.47 86.89 50.00 87.00 50.00 87.00
C 60.66 78.04 74.23 72.69 86.00 65.00
C 83.81 63.38 79.83 65.45 77.00 66.00 Z"/>
</g>
<g fill="None" fill-opacity="0.0" stroke="#D3D1D0" stroke-opacity="0.18" stroke-width="0.3"><path d="
M 56.00 72.00 
C 56.30 71.76 57.00 72.00 57.00 72.00
C 57.19 71.68 57.87 71.27 58.00 71.00
C 58.88 69.21 59.19 66.80 60.00 65.00
C 60.00 65.00 59.41 65.19 59.00 65.00
C 58.14 67.30 56.74 69.64 56.00 72.00 Z"/>
</g>
<g fill="None" fill-opacity="0.0" stroke="#B5615E" stroke-opacity="0.66" stroke-width="0.3"><path d="
M 57.00 72.00 
C 56.02 73.65 54.42 75.09 53.00 76.00
C 55.05 75.60 58.26 73.58 58.00 71.00
C 57.87 71.27 57.19 71.68 57.00 72.00 Z"/>
</g>
<g fill="None" fill-opacity="0.0" stroke="#F2B7B8" stroke-opacity="0.16" stroke-width="0.3"><path d="
M 46.00 78.00 
C 48.10 77.51 49.87 76.50 52.00 76.00
C 52.00 76.00 52.52 76.09 53.00 76.00
C 54.42 75.09 56.02 73.65 57.00 72.00
C 57.00 72.00 56.30 71.76 56.00 72.00
C 53.08 74.34 48.95 75.64 46.00 78.00 Z"/>
</g>
<g fill="None" fill-opacity="0.0" stroke="#B65357" stroke-opacity="0.55" stroke-width="0.3"><path d="
M 46.00 78.00 
C 46.00 78.00 45.42 77.82 45.00 78.00
C 44.13 79.14 43.59 80.71 43.00 82.00
C 45.04 79.24 49.51 78.00 52.00 76.00
C 49.87 76.50 48.10 77.51 46.00 78.00 Z"/>
</g>
<g fill="None" fill-opacity="0.0" stroke="#E9A7A8" stroke-opacity="0.11" stroke-width="0.3"><path d="
M 50.00 87.00 
C 50.00 87.00 49.47 86.89 49.00 87.00
C 47.37 89.61 43.64 90.85 41.00 92.00
C 40.16 92.36 39.23 93.93 38.00 94.00
C 38.15 92.59 38.65 90.66 40.00 90.00
C 40.38 89.18 40.62 87.93 41.00 87.00
C 41.71 85.29 42.23 83.68 43.00 82.00
C 43.59 80.71 44.13 79.14 45.00 78.00
C 40.70 82.39 38.67 89.17 37.00 95.00
C 48.13 91.22 57.88 82.61 68.00 77.00
C 61.65 79.54 56.43 84.47 50.00 87.00 Z"/>
</g>
<g fill="None" fill-opacity="0.0" stroke="#B74048" stroke-opacity="0.73" stroke-width="0.3"><path d="
M 13.00 101.00 
C 17.06 94.73 20.57 88.29 23.00 81.00
C 19.81 87.45 16.40 94.37 13.00 101.00 Z"/>
</g>
<g fill="None" fill-opacity="0.0" stroke="#B43740" stroke-opacity="0.75" stroke-width="0.3"><path d="
M 40.00 90.00 
C 40.00 89.96 40.83 92.71 41.00 92.00
C 43.64 90.85 47.37 89.61 49.00 87.00
C 46.39 87.25 44.37 89.03 42.00 90.00
C 42.88 88.96 41.03 87.38 41.00 87.00
C 40.62 87.93 40.38 89.18 40.00 90.00 Z"/>
</g>
<g fill="None" fill-opacity="0.0" stroke="#8E5056" stroke-opacity="0.47" stroke-width="0.3"><path d="
M 41.00 92.00 
C 40.83 92.71 40.00 89.96 40.00 90.00
C 38.65 90.66 38.15 92.59 38.00 94.00
C 39.23 93.93 40.16 92.36 41.00 92.00 Z"/>
</g>
<g fill="#000000" fill-opacity="0.00" stroke="None">
<path d="
M 0.00 116.00 
L 118.00 116.00
L 118.00 0.00
L 0.00 0.00
L 0.00 116.00
M 108.00 44.00 
C 109.84 47.85 113.24 48.51 116.00 51.00
C 113.29 52.69 110.92 54.72 108.00 56.00
C 95.84 62.71 83.64 70.30 71.00 76.00
C 69.96 76.47 69.01 76.60 68.00 77.00
C 57.88 82.61 48.13 91.22 37.00 95.00
C 38.67 89.17 40.70 82.39 45.00 78.00
C 45.42 77.82 46.00 78.00 46.00 78.00
C 48.95 75.64 53.08 74.34 56.00 72.00
C 56.74 69.64 58.14 67.30 59.00 65.00
C 56.73 63.97 56.08 61.96 55.00 60.00
C 53.77 57.77 52.45 55.50 52.00 53.00
C 44.48 62.48 40.18 77.56 33.00 88.00
C 32.89 88.47 33.00 89.00 33.00 89.00
C 30.03 101.65 19.12 107.11 8.00 112.00
C 18.30 81.82 35.49 53.68 48.00 24.00
C 50.98 18.17 57.81 18.90 63.25 16.25 C 68.68 13.59 73.81 10.84 80.00 10.00
C 79.68 14.00 77.23 17.98 75.00 21.00
C 73.81 24.31 72.40 27.76 71.00 31.00
C 69.26 35.04 67.31 38.63 65.00 42.00
C 64.54 43.08 64.60 43.10 64.00 44.00
C 64.05 44.50 64.00 45.00 64.00 45.00
C 64.43 46.15 65.46 48.48 67.00 49.00
C 67.27 47.17 68.02 44.70 70.00 44.00
C 73.26 37.63 75.21 25.44 81.00 21.00
C 81.09 20.52 81.00 20.00 81.00 20.00
C 80.95 18.32 81.72 17.77 83.00 17.00
C 83.16 16.56 83.00 16.00 83.00 16.00
C 83.57 13.59 85.07 11.96 86.00 10.00
C 86.01 8.82 86.49 8.03 87.00 7.00
C 87.67 5.65 88.03 3.67 90.00 4.00
C 94.62 17.80 102.79 30.56 108.00 44.00 Z"/>
</g>
<g fill="#BBBBBB" fill-opacity="0.15" stroke="None">
<path d="
M 87.00 7.00 
C 89.26 4.73 89.99 7.36 91.00 9.00
C 94.39 14.51 96.81 21.90 99.00 28.00
C 100.41 30.85 102.45 33.98 104.00 37.00
C 105.21 39.37 106.12 41.56 107.00 44.00
C 107.06 44.16 108.00 44.00 108.00 44.00
C 102.79 30.56 94.62 17.80 90.00 4.00
C 88.03 3.67 87.67 5.65 87.00 7.00 Z"/>
</g>
<g fill="#888888" fill-opacity="0.53" stroke="None">
<path d="
M 87.00 7.00 
C 86.49 8.03 86.01 8.82 86.00 10.00
C 86.00 10.50 86.00 11.00 86.00 11.00
C 86.68 9.90 88.37 8.75 88.00 7.00
C 89.25 7.30 89.71 8.83 91.00 9.00
C 89.99 7.36 89.26 4.73 87.00 7.00 Z"/>
</g>
<g fill="#6E6E71" fill-opacity="0.95" stroke="None">
<path d="
M 86.00 11.00 
C 85.25 12.90 84.15 14.56 83.00 16.00
C 83.00 16.00 83.16 16.56 83.00 17.00
C 82.62 18.02 82.36 18.99 82.00 20.00
C 81.43 21.59 80.75 21.80 80.00 23.00
C 77.07 30.08 73.14 37.28 70.00 44.00
C 67.08 50.25 64.72 59.95 60.00 65.00
C 59.19 66.80 58.88 69.21 58.00 71.00
C 62.03 68.10 69.00 69.13 73.00 66.00
C 73.97 65.24 73.65 65.21 74.00 64.00
C 75.19 59.93 77.39 55.93 79.00 52.00
C 79.67 50.35 79.94 50.28 81.00 49.00
C 82.45 47.20 83.57 44.78 85.00 43.00
C 85.11 42.53 85.00 42.00 85.00 42.00
C 85.66 39.18 87.48 36.88 88.00 34.00
C 92.78 39.99 95.24 48.21 99.00 55.00
C 99.50 55.00 100.00 55.00 100.00 55.00
C 103.60 52.12 105.71 51.86 110.00 51.00
C 110.00 50.50 110.00 50.00 110.00 50.00
C 108.49 48.12 107.84 46.32 107.00 44.00
C 106.12 41.56 105.21 39.37 104.00 37.00
C 102.07 33.98 100.30 31.60 99.00 28.00
C 96.81 21.90 94.39 14.51 91.00 9.00
C 89.71 8.83 89.25 7.30 88.00 7.00
C 88.37 8.75 86.68 9.90 86.00 11.00 Z"/>
</g>
<g fill="#EDE6E6" fill-opacity="0.17" stroke="None">
<path d="
M 48.00 24.00 
C 48.41 23.46 49.53 23.37 50.00 23.00
C 51.69 21.67 50.51 21.92 52.00 22.00
C 53.52 22.08 53.31 22.97 55.00 22.00
C 56.38 19.54 57.28 18.09 61.00 19.00
C 60.13 21.99 58.82 26.71 55.00 27.00
C 55.53 27.92 56.61 30.15 57.00 31.00
C 57.35 26.07 64.42 15.35 70.00 15.00
C 67.67 21.88 64.32 28.44 61.00 35.00
C 60.11 34.48 62.05 37.82 62.00 37.00
C 67.11 28.50 68.74 14.27 79.00 11.00
C 78.57 14.63 75.42 17.35 75.00 21.00
C 77.23 17.98 79.68 14.00 80.00 10.00
C 73.81 10.84 68.68 13.59 63.25 16.25 C 57.81 18.90 50.98 18.17 48.00 24.00 Z"/>
</g>
<g fill="#C7C7C7" fill-opacity="0.18" stroke="None">
<path d="
M 83.00 16.00 
C 84.15 14.56 85.25 12.90 86.00 11.00
C 86.00 11.00 86.00 10.50 86.00 10.00
C 85.07 11.96 83.57 13.59 83.00 16.00 Z"/>
</g>
<g fill="#C2BEBF" fill-opacity="0.75" stroke="None">
<path d="
M 62.00 37.00 
C 61.75 37.42 60.02 38.92 60.00 39.00
C 60.52 40.38 61.32 41.70 62.00 43.00
C 62.63 43.46 63.87 42.58 64.00 44.00
C 64.60 43.10 64.54 43.08 65.00 42.00
C 66.72 37.99 69.08 34.51 71.00 31.00
C 72.40 27.76 73.81 24.31 75.00 21.00
C 75.42 17.35 78.57 14.63 79.00 11.00
C 68.74 14.27 67.11 28.50 62.00 37.00 Z"/>
</g>
<g fill="#C4BEBD" fill-opacity="0.82" stroke="None">
<path d="
M 57.00 31.00 
C 57.57 32.26 58.49 33.94 59.00 35.00
C 59.48 35.09 60.63 34.78 61.00 35.00
C 64.32 28.44 67.67 21.88 70.00 15.00
C 64.42 15.35 57.35 26.07 57.00 31.00 Z"/>
</g>
<g fill="#CBCDCF" fill-opacity="0.14" stroke="None">
<path d="
M 81.00 20.00 
C 81.25 19.75 82.00 20.00 82.00 20.00
C 82.36 18.99 82.62 18.02 83.00 17.00
C 81.72 17.77 80.95 18.32 81.00 20.00 Z"/>
</g>
<g fill="#C8BCBD" fill-opacity="0.73" stroke="None">
<path d="
M 55.00 22.00 
C 54.05 23.70 55.14 23.29 53.00 24.00
C 53.09 24.48 53.00 25.00 53.00 25.00
C 53.32 25.61 54.67 26.43 55.00 27.00
C 58.82 26.71 60.13 21.99 61.00 19.00
C 57.28 18.09 56.38 19.54 55.00 22.00 Z"/>
</g>
<g fill="#808185" fill-opacity="0.50" stroke="None">
<path d="
M 81.00 21.00 
C 80.89 21.61 80.24 22.42 80.00 23.00
C 80.75 21.80 81.43 21.59 82.00 20.00
C 82.00 20.00 81.25 19.75 81.00 20.00
C 81.00 20.00 81.09 20.52 81.00 21.00 Z"/>
</g>
<g fill="#A4494E" fill-opacity="0.81" stroke="None">
<path d="
M 50.00 23.00 
C 49.36 24.04 49.47 25.01 49.00 26.00
C 50.18 24.54 51.47 24.17 53.00 25.00
C 53.00 25.00 53.09 24.48 53.00 24.00
C 52.95 23.74 52.14 22.15 52.00 22.00
C 50.51 21.92 51.69 21.67 50.00 23.00 Z"/>
</g>
<g fill="#C8C9CB" fill-opacity="0.14" stroke="None">
<path d="
M 70.00 44.00 
C 73.14 37.28 77.07 30.08 80.00 23.00
C 80.24 22.42 80.89 21.61 81.00 21.00
C 75.21 25.44 73.26 37.63 70.00 44.00 Z"/>
</g>
<g fill="#E3B9B7" fill-opacity="0.53" stroke="None">
<path d="
M 53.00 24.00 
C 55.14 23.29 54.05 23.70 55.00 22.00
C 53.31 22.97 53.52 22.08 52.00 22.00
C 52.14 22.15 52.95 23.74 53.00 24.00 Z"/>
</g>
<g fill="#F2B8B8" fill-opacity="0.13" stroke="None">
<path d="
M 48.00 24.00 
C 35.49 53.68 18.30 81.82 8.00 112.00
C 19.12 107.11 30.03 101.65 33.00 89.00
C 26.32 97.33 21.51 108.20 9.00 110.00
C 8.94 108.11 10.42 106.71 11.00 105.00
C 11.65 103.63 12.31 102.34 13.00 101.00
C 16.40 94.37 19.81 87.45 23.00 81.00
C 27.39 67.84 34.45 52.47 42.00 41.00
C 44.37 36.21 46.78 30.69 49.00 26.00
C 49.47 25.01 49.36 24.04 50.00 23.00
C 49.53 23.37 48.41 23.46 48.00 24.00 Z"/>
</g>
<g fill="#DF272D" fill-opacity="0.97" stroke="None">
<path d="
M 49.00 26.00 
C 46.12 29.56 44.68 36.94 42.00 41.00
C 34.45 52.47 27.39 67.84 23.00 81.00
C 20.57 88.29 17.06 94.73 13.00 101.00
C 12.31 102.34 11.65 103.63 11.00 105.00
C 11.64 109.08 22.60 102.61 25.25 99.25 C 27.90 95.88 31.26 88.43 33.77 83.77 C 36.28 79.11 38.01 72.06 41.31 67.31 C 44.60 62.55 45.22 55.87 49.31 51.31 C 53.39 46.74 55.88 62.06 60.00 60.00
C 62.48 55.92 66.26 51.08 64.00 46.00
C 63.09 45.87 62.39 43.75 62.00 43.00
C 61.32 41.70 60.52 40.38 60.00 39.00
C 59.56 37.83 59.55 36.14 59.00 35.00
C 58.49 33.94 57.57 32.26 57.00 31.00
C 56.61 30.15 55.53 27.92 55.00 27.00
C 54.67 26.43 53.32 25.61 53.00 25.00
C 51.47 24.17 50.18 24.54 49.00 26.00 Z"/>
</g>
<g fill="#B03E45" fill-opacity="0.65" stroke="None">
<path d="
M 42.00 41.00 
C 44.68 36.94 46.12 29.56 49.00 26.00
C 46.78 30.69 44.37 36.21 42.00 41.00 Z"/>
</g>
<g fill="#67686A" fill-opacity="0.65" stroke="None">
<path d="
M 104.00 37.00 
C 102.45 33.98 100.41 30.85 99.00 28.00
C 100.30 31.60 102.07 33.98 104.00 37.00 Z"/>
</g>
<g fill="#E3E7E4" fill-opacity="0.12" stroke="None">
<path d="
M 65.00 42.00 
C 67.31 38.63 69.26 35.04 71.00 31.00
C 69.08 34.51 66.72 37.99 65.00 42.00 Z"/>
</g>
<g fill="#CFD0D0" fill-opacity="0.14" stroke="None">
<path d="
M 85.00 42.00 
C 86.15 40.57 87.28 38.86 88.00 37.00
C 93.00 41.62 94.23 49.24 98.00 55.00
C 98.36 54.77 99.00 55.00 99.00 55.00
C 95.24 48.21 92.78 39.99 88.00 34.00
C 87.48 36.88 85.66 39.18 85.00 42.00 Z"/>
</g>
<g fill="#F0C5BC" fill-opacity="0.28" stroke="None">
<path d="
M 60.00 39.00 
C 60.02 38.92 61.75 37.42 62.00 37.00
C 62.05 37.82 60.11 34.48 61.00 35.00
C 60.63 34.78 59.48 35.09 59.00 35.00
C 59.55 36.14 59.56 37.83 60.00 39.00 Z"/>
</g>
<g fill="#000000" fill-opacity="0.00" stroke="None">
<path d="
M 85.00 42.00 
C 85.00 42.00 85.11 42.53 85.00 43.00
C 84.49 45.16 83.41 49.14 81.00 50.00
C 78.83 54.38 77.57 59.52 75.00 64.00
C 76.10 65.06 77.40 64.57 79.00 64.00
C 79.44 63.84 80.00 64.00 80.00 64.00
C 85.23 59.80 92.34 58.56 98.00 55.00
C 94.23 49.24 93.00 41.62 88.00 37.00
C 87.28 38.86 86.15 40.57 85.00 42.00 Z"/>
</g>
<g fill="#F4A1A0" fill-opacity="0.45" stroke="None">
<path d="
M 64.00 46.00 
C 63.81 45.58 64.00 45.00 64.00 45.00
C 64.00 45.00 64.05 44.50 64.00 44.00
C 63.87 42.58 62.63 43.46 62.00 43.00
C 62.39 43.75 63.09 45.87 64.00 46.00 Z"/>
</g>
<g fill="#D4D8D9" fill-opacity="0.07" stroke="None">
<path d="
M 81.00 49.00 
C 80.76 49.30 81.00 50.00 81.00 50.00
C 83.41 49.14 84.49 45.16 85.00 43.00
C 83.57 44.78 82.45 47.20 81.00 49.00 Z"/>
</g>
<g fill="#EFCACE" fill-opacity="0.13" stroke="None">
<path d="
M 64.00 45.00 
C 64.00 45.00 63.81 45.58 64.00 46.00
C 66.26 51.08 62.48 55.92 60.00 60.00
C 59.42 60.96 59.33 62.87 59.00 64.00
C 57.18 63.40 56.85 61.44 56.00 60.00
C 55.93 59.83 55.00 60.00 55.00 60.00
C 56.08 61.96 56.73 63.97 59.00 65.00
C 59.41 65.19 60.00 65.00 60.00 65.00
C 64.72 59.95 67.08 50.25 70.00 44.00
C 68.02 44.70 67.27 47.17 67.00 49.00
C 65.46 48.48 64.43 46.15 64.00 45.00 Z"/>
</g>
<g fill="#747373" fill-opacity="0.69" stroke="None">
<path d="
M 110.00 50.00 
C 110.00 49.50 110.00 49.00 110.00 49.00
C 109.12 47.25 108.56 45.83 108.00 44.00
C 108.00 44.00 107.06 44.16 107.00 44.00
C 107.84 46.32 108.49 48.12 110.00 50.00 Z"/>
</g>
<g fill="#E8E5E6" fill-opacity="0.09" stroke="None">
<path d="
M 110.00 49.00 
C 111.23 49.36 111.73 50.78 113.00 51.00
C 112.33 52.20 111.36 53.58 110.00 54.00
C 109.56 54.16 109.00 54.00 109.00 54.00
C 108.49 54.25 108.34 55.69 108.00 56.00
C 110.92 54.72 113.29 52.69 116.00 51.00
C 113.24 48.51 109.84 47.85 108.00 44.00
C 108.56 45.83 109.12 47.25 110.00 49.00 Z"/>
</g>
<g fill="#6E6A6D" fill-opacity="0.66" stroke="None">
<path d="
M 79.00 52.00 
C 79.33 51.43 80.71 50.55 81.00 50.00
C 81.00 50.00 80.76 49.30 81.00 49.00
C 79.94 50.28 79.67 50.35 79.00 52.00 Z"/>
</g>
<g fill="#BFB0B1" fill-opacity="0.48" stroke="None">
<path d="
M 110.00 50.00 
C 110.00 50.00 110.00 50.50 110.00 51.00
C 110.00 51.39 110.26 53.76 110.00 54.00
C 111.36 53.58 112.33 52.20 113.00 51.00
C 111.73 50.78 111.23 49.36 110.00 49.00
C 110.00 49.00 110.00 49.50 110.00 50.00 Z"/>
</g>
<g fill="#B5434A" fill-opacity="0.64" stroke="None">
<path d="
M 11.00 105.00 
C 10.42 106.71 8.94 108.11 9.00 110.00
C 21.51 108.20 26.32 97.33 33.00 89.00
C 33.00 89.00 32.89 88.47 33.00 88.00
C 36.06 74.94 46.96 64.07 50.00 51.00
C 53.65 51.74 54.61 56.90 56.00 60.00
C 56.85 61.44 57.18 63.40 59.00 64.00
C 59.33 62.87 59.42 60.96 60.00 60.00
C 55.88 62.06 53.39 46.74 49.31 51.31 C 45.22 55.87 44.60 62.55 41.31 67.31 C 38.01 72.06 36.28 79.11 33.77 83.77 C 31.26 88.43 27.90 95.88 25.25 99.25 C 22.60 102.61 11.64 109.08 11.00 105.00 Z"/>
</g>
<g fill="#A4A6A7" fill-opacity="0.17" stroke="None">
<path d="
M 79.00 52.00 
C 77.39 55.93 75.19 59.93 74.00 64.00
C 74.20 63.76 75.00 64.00 75.00 64.00
C 77.57 59.52 78.83 54.38 81.00 50.00
C 80.71 50.55 79.33 51.43 79.00 52.00 Z"/>
</g>
<g fill="#F3AEB0" fill-opacity="0.12" stroke="None">
<path d="
M 33.00 88.00 
C 40.18 77.56 44.48 62.48 52.00 53.00
C 52.45 55.50 53.77 57.77 55.00 60.00
C 55.00 60.00 55.93 59.83 56.00 60.00
C 54.61 56.90 53.65 51.74 50.00 51.00
C 46.96 64.07 36.06 74.94 33.00 88.00 Z"/>
</g>
<g fill="#CFACB2" fill-opacity="0.81" stroke="None">
<path d="
M 100.00 55.00 
C 100.25 55.25 100.00 56.00 100.00 56.00
C 102.51 55.01 106.99 52.55 109.00 54.00
C 109.00 54.00 109.56 54.16 110.00 54.00
C 110.26 53.76 110.00 51.39 110.00 51.00
C 105.71 51.86 103.60 52.12 100.00 55.00 Z"/>
</g>
<g fill="#B54049" fill-opacity="0.71" stroke="None">
<path d="
M 100.00 56.00 
C 93.39 58.59 86.90 62.38 80.00 64.00
C 80.00 64.00 79.44 63.84 79.00 64.00
C 78.42 64.31 77.54 65.72 77.00 66.00
C 79.83 65.45 83.81 63.38 86.00 65.00
C 74.23 72.69 60.66 78.04 50.00 87.00
C 56.43 84.47 61.65 79.54 68.00 77.00
C 69.01 76.60 69.96 76.47 71.00 76.00
C 76.39 72.49 83.77 67.32 89.70 64.70 C 95.62 62.07 95.86 60.51 99.23 59.23 C 102.60 57.95 107.55 52.72 109.00 54.00
C 106.99 52.55 102.51 55.01 100.00 56.00 Z"/>
</g>
<g fill="#EFB3B2" fill-opacity="0.13" stroke="None">
<path d="
M 71.00 76.00 
C 83.64 70.30 95.84 62.71 108.00 56.00
C 108.34 55.69 108.49 54.25 109.00 54.00
C 107.55 52.72 102.60 57.95 99.23 59.23 C 95.86 60.51 95.62 62.07 89.70 64.70 C 83.77 67.32 76.39 72.49 71.00 76.00 Z"/>
</g>
<g fill="#F9C9CC" fill-opacity="0.17" stroke="None">
<path d="
M 80.00 64.00 
C 86.90 62.38 93.39 58.59 100.00 56.00
C 100.00 56.00 100.25 55.25 100.00 55.00
C 100.00 55.00 99.50 55.00 99.00 55.00
C 99.00 55.00 98.36 54.77 98.00 55.00
C 92.34 58.56 85.23 59.80 80.00 64.00 Z"/>
</g>
<g fill="#F3BAB7" fill-opacity="0.19" stroke="None">
<path d="
M 73.00 66.00 
C 73.49 65.92 75.60 66.27 77.00 66.00
C 77.54 65.72 78.42 64.31 79.00 64.00
C 77.40 64.57 76.10 65.06 75.00 64.00
C 75.00 64.00 74.20 63.76 74.00 64.00
C 73.65 65.21 73.97 65.24 73.00 66.00 Z"/>
</g>
<g fill="#D43034" fill-opacity="0.98" stroke="None">
<path d="
M 77.00 66.00 
C 75.60 66.27 73.49 65.92 73.00 66.00
C 69.00 69.13 62.03 68.10 58.00 71.00
C 58.26 73.58 55.05 75.60 53.00 76.00
C 52.52 76.09 52.00 76.00 52.00 76.00
C 49.51 78.00 45.04 79.24 43.00 82.00
C 42.23 83.68 41.71 85.29 41.00 87.00
C 41.03 87.38 42.88 88.96 42.00 90.00
C 44.37 89.03 46.39 87.25 49.00 87.00
C 49.47 86.89 50.00 87.00 50.00 87.00
C 60.66 78.04 74.23 72.69 86.00 65.00
C 83.81 63.38 79.83 65.45 77.00 66.00 Z"/>
</g>
<g fill="#D3D1D0" fill-opacity="0.18" stroke="None">
<path d="
M 56.00 72.00 
C 56.30 71.76 57.00 72.00 57.00 72.00
C 57.19 71.68 57.87 71.27 58.00 71.00
C 58.88 69.21 59.19 66.80 60.00 65.00
C 60.00 65.00 59.41 65.19 59.00 65.00
C 58.14 67.30 56.74 69.64 56.00 72.00 Z"/>
</g>
<g fill="#B5615E" fill-opacity="0.66" stroke="None">
<path d="
M 57.00 72.00 
C 56.02 73.65 54.42 75.09 53.00 76.00
C 55.05 75.60 58.26 73.58 58.00 71.00
C 57.87 71.27 57.19 71.68 57.00 72.00 Z"/>
</g>
<g fill="#F2B7B8" fill-opacity="0.16" stroke="None">
<path d="
M 46.00 78.00 
C 48.10 77.51 49.87 76.50 52.00 76.00
C 52.00 76.00 52.52 76.09 53.00 76.00
C 54.42 75.09 56.02 73.65 57.00 72.00
C 57.00 72.00 56.30 71.76 56.00 72.00
C 53.08 74.34 48.95 75.64 46.00 78.00 Z"/>
</g>
<g fill="#B65357" fill-opacity="0.55" stroke="None">
<path d="
M 46.00 78.00 
C 46.00 78.00 45.42 77.82 45.00 78.00
C 44.13 79.14 43.59 80.71 43.00 82.00
C 45.04 79.24 49.51 78.00 52.00 76.00
C 49.87 76.50 48.10 77.51 46.00 78.00 Z"/>
</g>
<g fill="#E9A7A8" fill-opacity="0.11" stroke="None">
<path d="
M 50.00 87.00 
C 50.00 87.00 49.47 86.89 49.00 87.00
C 47.37 89.61 43.64 90.85 41.00 92.00
C 40.16 92.36 39.23 93.93 38.00 94.00
C 38.15 92.59 38.65 90.66 40.00 90.00
C 40.38 89.18 40.62 87.93 41.00 87.00
C 41.71 85.29 42.23 83.68 43.00 82.00
C 43.59 80.71 44.13 79.14 45.00 78.00
C 40.70 82.39 38.67 89.17 37.00 95.00
C 48.13 91.22 57.88 82.61 68.00 77.00
C 61.65 79.54 56.43 84.47 50.00 87.00 Z"/>
</g>
<g fill="#B74048" fill-opacity="0.73" stroke="None">
<path d="
M 13.00 101.00 
C 17.06 94.73 20.57 88.29 23.00 81.00
C 19.81 87.45 16.40 94.37 13.00 101.00 Z"/>
</g>
<g fill="#B43740" fill-opacity="0.75" stroke="None">
<path d="
M 40.00 90.00 
C 40.00 89.96 40.83 92.71 41.00 92.00
C 43.64 90.85 47.37 89.61 49.00 87.00
C 46.39 87.25 44.37 89.03 42.00 90.00
C 42.88 88.96 41.03 87.38 41.00 87.00
C 40.62 87.93 40.38 89.18 40.00 90.00 Z"/>
</g>
<g fill="#8E5056" fill-opacity="0.47" stroke="None">
<path d="
M 41.00 92.00 
C 40.83 92.71 40.00 89.96 40.00 90.00
C 38.65 90.66 38.15 92.59 38.00 94.00
C 39.23 93.93 40.16 92.36 41.00 92.00 Z"/>
</g>
</svg>